<svg width="358" height="50" viewBox="0 0 358 50" fill="none" xmlns="http://www.w3.org/2000/svg">
<rect width="358" height="50" rx="2" fill="black"/>
<path d="M173.849 23H172.264C172.17 22.544 172.006 22.1435 171.771 21.7983C171.541 21.4531 171.26 21.1634 170.928 20.929C170.6 20.6903 170.235 20.5114 169.835 20.392C169.434 20.2727 169.016 20.2131 168.582 20.2131C167.789 20.2131 167.071 20.4134 166.428 20.8139C165.788 21.2145 165.279 21.8047 164.9 22.5845C164.525 23.3643 164.337 24.321 164.337 25.4545C164.337 26.5881 164.525 27.5447 164.9 28.3246C165.279 29.1044 165.788 29.6946 166.428 30.0952C167.071 30.4957 167.789 30.696 168.582 30.696C169.016 30.696 169.434 30.6364 169.835 30.517C170.235 30.3977 170.6 30.2209 170.928 29.9865C171.26 29.7479 171.541 29.456 171.771 29.1108C172.006 28.7614 172.17 28.3608 172.264 27.9091H173.849C173.729 28.5781 173.512 29.1768 173.197 29.7053C172.881 30.2337 172.489 30.6832 172.021 31.054C171.552 31.4205 171.026 31.6996 170.442 31.8913C169.862 32.0831 169.242 32.179 168.582 32.179C167.465 32.179 166.472 31.9062 165.603 31.3608C164.734 30.8153 164.05 30.0398 163.551 29.0341C163.053 28.0284 162.803 26.8352 162.803 25.4545C162.803 24.0739 163.053 22.8807 163.551 21.875C164.05 20.8693 164.734 20.0938 165.603 19.5483C166.472 19.0028 167.465 18.7301 168.582 18.7301C169.242 18.7301 169.862 18.826 170.442 19.0178C171.026 19.2095 171.552 19.4908 172.021 19.8615C172.489 20.228 172.881 20.6754 173.197 21.2038C173.512 21.728 173.729 22.3267 173.849 23ZM176.206 32V22.1818H177.663V23.6648H177.766C177.945 23.179 178.268 22.7848 178.737 22.4822C179.206 22.1797 179.734 22.0284 180.322 22.0284C180.433 22.0284 180.572 22.0305 180.738 22.0348C180.904 22.0391 181.03 22.0455 181.115 22.054V23.5881C181.064 23.5753 180.947 23.5561 180.763 23.5305C180.584 23.5007 180.395 23.4858 180.195 23.4858C179.717 23.4858 179.291 23.5859 178.916 23.7862C178.545 23.9822 178.251 24.255 178.034 24.6044C177.821 24.9496 177.714 25.3437 177.714 25.7869V32H176.206ZM182.903 32V22.1818H184.412V32H182.903ZM183.67 20.5455C183.376 20.5455 183.123 20.4453 182.91 20.245C182.701 20.0447 182.596 19.804 182.596 19.5227C182.596 19.2415 182.701 19.0007 182.91 18.8004C183.123 18.6001 183.376 18.5 183.67 18.5C183.964 18.5 184.216 18.6001 184.424 18.8004C184.638 19.0007 184.744 19.2415 184.744 19.5227C184.744 19.804 184.638 20.0447 184.424 20.245C184.216 20.4453 183.964 20.5455 183.67 20.5455ZM191.291 32.2045C190.345 32.2045 189.529 31.9957 188.843 31.5781C188.161 31.1562 187.635 30.5682 187.264 29.8139C186.898 29.0554 186.714 28.1733 186.714 27.1676C186.714 26.1619 186.898 25.2756 187.264 24.5085C187.635 23.7372 188.15 23.1364 188.811 22.706C189.476 22.2713 190.251 22.054 191.138 22.054C191.649 22.054 192.154 22.1392 192.653 22.3097C193.151 22.4801 193.605 22.7571 194.014 23.1406C194.423 23.5199 194.749 24.0227 194.992 24.6491C195.235 25.2756 195.356 26.0469 195.356 26.9631V27.6023H187.788V26.2983H193.822C193.822 25.7443 193.712 25.25 193.49 24.8153C193.273 24.3807 192.962 24.0376 192.557 23.7862C192.156 23.5348 191.683 23.4091 191.138 23.4091C190.537 23.4091 190.017 23.5582 189.578 23.8565C189.143 24.1506 188.809 24.5341 188.574 25.0071C188.34 25.4801 188.223 25.9872 188.223 26.5284V27.3977C188.223 28.1392 188.351 28.7678 188.606 29.2834C188.866 29.7947 189.226 30.1847 189.687 30.4531C190.147 30.7173 190.682 30.8494 191.291 30.8494C191.687 30.8494 192.045 30.794 192.365 30.6832C192.689 30.5682 192.968 30.3977 193.202 30.1719C193.437 29.9418 193.618 29.6562 193.746 29.3153L195.203 29.7244C195.05 30.2188 194.792 30.6534 194.43 31.0284C194.067 31.3991 193.62 31.6889 193.087 31.8977C192.555 32.1023 191.956 32.2045 191.291 32.2045Z" fill="white"/>
</svg>
