<svg width="358" height="47" viewBox="0 0 358 47" fill="none" xmlns="http://www.w3.org/2000/svg">
<line x1="-4.35789e-08" y1="26.5" x2="358" y2="26.5" stroke="#FF0000"/>
<path d="M1.05682 44V35.2727H4.00568C4.69034 35.2727 5.25 35.3963 5.68466 35.6435C6.12216 35.8878 6.44602 36.2188 6.65625 36.6364C6.86648 37.054 6.97159 37.5199 6.97159 38.0341C6.97159 38.5483 6.86648 39.0156 6.65625 39.4361C6.44886 39.8565 6.12784 40.1918 5.69318 40.4418C5.25852 40.6889 4.7017 40.8125 4.02273 40.8125H1.90909V39.875H3.98864C4.45739 39.875 4.83381 39.794 5.1179 39.6321C5.40199 39.4702 5.60795 39.2514 5.7358 38.9759C5.86648 38.6974 5.93182 38.3835 5.93182 38.0341C5.93182 37.6847 5.86648 37.3722 5.7358 37.0966C5.60795 36.821 5.40057 36.6051 5.11364 36.4489C4.8267 36.2898 4.44602 36.2102 3.97159 36.2102H2.11364V44H1.05682ZM8.53764 44V37.4545H9.50923V38.4432H9.57741C9.69673 38.1193 9.91264 37.8565 10.2251 37.6548C10.5376 37.4531 10.8899 37.3523 11.282 37.3523C11.3558 37.3523 11.4482 37.3537 11.5589 37.3565C11.6697 37.3594 11.7536 37.3636 11.8104 37.3693V38.392C11.7763 38.3835 11.6982 38.3707 11.576 38.3537C11.4567 38.3338 11.3303 38.3239 11.1967 38.3239C10.8786 38.3239 10.5945 38.3906 10.3445 38.5241C10.0973 38.6548 9.90128 38.8366 9.75639 39.0696C9.61435 39.2997 9.54332 39.5625 9.54332 39.858V44H8.53764ZM15.5476 44.1364C14.9169 44.1364 14.3729 43.9972 13.9155 43.7188C13.4609 43.4375 13.1101 43.0455 12.8629 42.5426C12.6186 42.0369 12.4964 41.4489 12.4964 40.7784C12.4964 40.108 12.6186 39.517 12.8629 39.0057C13.1101 38.4915 13.4538 38.0909 13.8942 37.804C14.3374 37.5142 14.8544 37.3693 15.4453 37.3693C15.7862 37.3693 16.1229 37.4261 16.4553 37.5398C16.7876 37.6534 17.0902 37.8381 17.3629 38.0938C17.6357 38.3466 17.853 38.6818 18.0149 39.0994C18.1768 39.517 18.2578 40.0312 18.2578 40.642V41.0682H13.2124V40.1989H17.2351C17.2351 39.8295 17.1612 39.5 17.0135 39.2102C16.8686 38.9205 16.6612 38.6918 16.3913 38.5241C16.1243 38.3565 15.8089 38.2727 15.4453 38.2727C15.0447 38.2727 14.6982 38.3722 14.4055 38.571C14.1158 38.767 13.8928 39.0227 13.7365 39.3381C13.5803 39.6534 13.5021 39.9915 13.5021 40.3523V40.9318C13.5021 41.4261 13.5874 41.8452 13.7578 42.1889C13.9311 42.5298 14.1712 42.7898 14.478 42.9688C14.7848 43.1449 15.1413 43.233 15.5476 43.233C15.8118 43.233 16.0504 43.196 16.2635 43.1222C16.4794 43.0455 16.6655 42.9318 16.8217 42.7812C16.978 42.6278 17.0987 42.4375 17.1839 42.2102L18.1555 42.483C18.0533 42.8125 17.8814 43.1023 17.6399 43.3523C17.3984 43.5994 17.1001 43.7926 16.745 43.9318C16.3899 44.0682 15.9908 44.1364 15.5476 44.1364ZM22.532 44.1364C21.9013 44.1364 21.3572 43.9972 20.8999 43.7188C20.4453 43.4375 20.0945 43.0455 19.8473 42.5426C19.603 42.0369 19.4808 41.4489 19.4808 40.7784C19.4808 40.108 19.603 39.517 19.8473 39.0057C20.0945 38.4915 20.4382 38.0909 20.8786 37.804C21.3217 37.5142 21.8388 37.3693 22.4297 37.3693C22.7706 37.3693 23.1072 37.4261 23.4396 37.5398C23.772 37.6534 24.0746 37.8381 24.3473 38.0938C24.62 38.3466 24.8374 38.6818 24.9993 39.0994C25.1612 39.517 25.2422 40.0312 25.2422 40.642V41.0682H20.1967V40.1989H24.2195C24.2195 39.8295 24.1456 39.5 23.9979 39.2102C23.853 38.9205 23.6456 38.6918 23.3757 38.5241C23.1087 38.3565 22.7933 38.2727 22.4297 38.2727C22.0291 38.2727 21.6825 38.3722 21.3899 38.571C21.1001 38.767 20.8771 39.0227 20.7209 39.3381C20.5646 39.6534 20.4865 39.9915 20.4865 40.3523V40.9318C20.4865 41.4261 20.5717 41.8452 20.7422 42.1889C20.9155 42.5298 21.1555 42.7898 21.4624 42.9688C21.7692 43.1449 22.1257 43.233 22.532 43.233C22.7962 43.233 23.0348 43.196 23.2479 43.1222C23.4638 43.0455 23.6499 42.9318 23.8061 42.7812C23.9624 42.6278 24.0831 42.4375 24.1683 42.2102L25.1399 42.483C25.0376 42.8125 24.8658 43.1023 24.6243 43.3523C24.3828 43.5994 24.0845 43.7926 23.7294 43.9318C23.3743 44.0682 22.9751 44.1364 22.532 44.1364ZM27.7777 40.0625V44H26.772V37.4545H27.7436V38.4773H27.8288C27.9822 38.1449 28.2152 37.8778 28.5277 37.6761C28.8402 37.4716 29.2436 37.3693 29.7379 37.3693C30.1811 37.3693 30.5689 37.4602 30.9013 37.642C31.2337 37.821 31.4922 38.0938 31.6768 38.4602C31.8615 38.8239 31.9538 39.2841 31.9538 39.8409V44H30.9482V39.9091C30.9482 39.3949 30.8146 38.9943 30.5476 38.7074C30.2805 38.4176 29.9141 38.2727 29.4482 38.2727C29.1271 38.2727 28.8402 38.3423 28.5874 38.4815C28.3374 38.6207 28.1399 38.8239 27.995 39.0909C27.8501 39.358 27.7777 39.6818 27.7777 40.0625ZM36.4506 44.1364C35.837 44.1364 35.3086 43.9915 34.8654 43.7017C34.4222 43.4119 34.0813 43.0128 33.8427 42.5043C33.604 41.9957 33.4847 41.4148 33.4847 40.7614C33.4847 40.0966 33.6069 39.5099 33.8512 39.0014C34.0984 38.4901 34.4421 38.0909 34.8825 37.804C35.3256 37.5142 35.8427 37.3693 36.4336 37.3693C36.8938 37.3693 37.3086 37.4545 37.6779 37.625C38.0472 37.7955 38.3498 38.0341 38.5856 38.3409C38.8214 38.6477 38.9677 39.0057 39.0245 39.4148H38.0188C37.9421 39.1165 37.7717 38.8523 37.5075 38.6222C37.2461 38.3892 36.8938 38.2727 36.4506 38.2727C36.0586 38.2727 35.7148 38.375 35.4194 38.5795C35.1268 38.7812 34.8981 39.0668 34.7333 39.4361C34.5714 39.8026 34.4904 40.233 34.4904 40.7273C34.4904 41.233 34.57 41.6733 34.729 42.0483C34.891 42.4233 35.1183 42.7145 35.4109 42.9219C35.7063 43.1293 36.0529 43.233 36.4506 43.233C36.712 43.233 36.9492 43.1875 37.1623 43.0966C37.3754 43.0057 37.5558 42.875 37.7035 42.7045C37.8512 42.5341 37.9563 42.3295 38.0188 42.0909H39.0245C38.9677 42.4773 38.8271 42.8253 38.6026 43.1349C38.381 43.4418 38.087 43.6861 37.7205 43.8679C37.3569 44.0469 36.9336 44.1364 36.4506 44.1364ZM41.5004 40.0625V44H40.4947V35.2727H41.5004V38.4773H41.5856C41.739 38.1392 41.9691 37.8707 42.2759 37.6719C42.5856 37.4702 42.9975 37.3693 43.5117 37.3693C43.9577 37.3693 44.3484 37.4588 44.6836 37.6378C45.0188 37.8139 45.2788 38.0852 45.4634 38.4517C45.6509 38.8153 45.7447 39.2784 45.7447 39.8409V44H44.739V39.9091C44.739 39.3892 44.604 38.9872 44.3342 38.7031C44.0671 38.4162 43.6964 38.2727 43.2219 38.2727C42.8924 38.2727 42.5969 38.3423 42.3356 38.4815C42.0771 38.6207 41.8725 38.8239 41.7219 39.0909C41.5742 39.358 41.5004 39.6818 41.5004 40.0625ZM49.5107 44.1534C49.0959 44.1534 48.7195 44.0753 48.3814 43.919C48.0433 43.7599 47.7749 43.5312 47.576 43.233C47.3771 42.9318 47.2777 42.5682 47.2777 42.142C47.2777 41.767 47.3516 41.4631 47.4993 41.2301C47.647 40.9943 47.8445 40.8097 48.0916 40.6761C48.3388 40.5426 48.6115 40.4432 48.9098 40.3778C49.2109 40.3097 49.5135 40.2557 49.8175 40.2159C50.2152 40.1648 50.5376 40.1264 50.7848 40.1009C51.0348 40.0724 51.2166 40.0256 51.3303 39.9602C51.4467 39.8949 51.505 39.7812 51.505 39.6193V39.5852C51.505 39.1648 51.3899 38.8381 51.1598 38.6051C50.9325 38.3722 50.5874 38.2557 50.1243 38.2557C49.6442 38.2557 49.2678 38.3608 48.995 38.571C48.7223 38.7812 48.5305 39.0057 48.4197 39.2443L47.4652 38.9034C47.6357 38.5057 47.8629 38.196 48.147 37.9744C48.4339 37.75 48.7464 37.5937 49.0845 37.5057C49.4254 37.4148 49.7607 37.3693 50.0902 37.3693C50.3004 37.3693 50.5419 37.3949 50.8146 37.446C51.0902 37.4943 51.3558 37.5952 51.6115 37.7486C51.87 37.902 52.0845 38.1335 52.255 38.4432C52.4254 38.7528 52.5107 39.1676 52.5107 39.6875V44H51.505V43.1136H51.4538C51.3857 43.2557 51.272 43.4077 51.1129 43.5696C50.9538 43.7315 50.7422 43.8693 50.478 43.983C50.2138 44.0966 49.8913 44.1534 49.5107 44.1534ZM49.6641 43.25C50.0618 43.25 50.397 43.1719 50.6697 43.0156C50.9453 42.8594 51.1527 42.6577 51.2919 42.4105C51.4339 42.1634 51.505 41.9034 51.505 41.6307V40.7102C51.4624 40.7614 51.3686 40.8082 51.2237 40.8509C51.0817 40.8906 50.9169 40.9261 50.7294 40.9574C50.5447 40.9858 50.3643 41.0114 50.1882 41.0341C50.0149 41.054 49.8743 41.071 49.7663 41.0852C49.505 41.1193 49.2607 41.1747 49.0334 41.2514C48.8089 41.3253 48.6271 41.4375 48.4879 41.5881C48.3516 41.7358 48.2834 41.9375 48.2834 42.1932C48.2834 42.5426 48.4126 42.8068 48.6712 42.9858C48.9325 43.1619 49.2635 43.25 49.6641 43.25ZM60.4656 44.1364C59.8349 44.1364 59.2908 43.9972 58.8335 43.7188C58.3789 43.4375 58.0281 43.0455 57.7809 42.5426C57.5366 42.0369 57.4144 41.4489 57.4144 40.7784C57.4144 40.108 57.5366 39.517 57.7809 39.0057C58.0281 38.4915 58.3718 38.0909 58.8121 37.804C59.2553 37.5142 59.7724 37.3693 60.3633 37.3693C60.7042 37.3693 61.0408 37.4261 61.3732 37.5398C61.7056 37.6534 62.0082 37.8381 62.2809 38.0938C62.5536 38.3466 62.771 38.6818 62.9329 39.0994C63.0948 39.517 63.1758 40.0312 63.1758 40.642V41.0682H58.1303V40.1989H62.1531C62.1531 39.8295 62.0792 39.5 61.9315 39.2102C61.7866 38.9205 61.5792 38.6918 61.3093 38.5241C61.0423 38.3565 60.7269 38.2727 60.3633 38.2727C59.9627 38.2727 59.6161 38.3722 59.3235 38.571C59.0337 38.767 58.8107 39.0227 58.6545 39.3381C58.4982 39.6534 58.4201 39.9915 58.4201 40.3523V40.9318C58.4201 41.4261 58.5053 41.8452 58.6758 42.1889C58.8491 42.5298 59.0891 42.7898 59.396 42.9688C59.7028 43.1449 60.0593 43.233 60.4656 43.233C60.7298 43.233 60.9684 43.196 61.1815 43.1222C61.3974 43.0455 61.5835 42.9318 61.7397 42.7812C61.896 42.6278 62.0167 42.4375 62.1019 42.2102L63.0735 42.483C62.9712 42.8125 62.7994 43.1023 62.5579 43.3523C62.3164 43.5994 62.0181 43.7926 61.663 43.9318C61.3079 44.0682 60.9087 44.1364 60.4656 44.1364ZM69.342 38.9205L68.4386 39.1761C68.3817 39.0256 68.2979 38.8793 68.1871 38.7372C68.0792 38.5923 67.9315 38.473 67.744 38.3793C67.5565 38.2855 67.3164 38.2386 67.0238 38.2386C66.6232 38.2386 66.2894 38.331 66.0224 38.5156C65.7582 38.6974 65.6261 38.929 65.6261 39.2102C65.6261 39.4602 65.717 39.6577 65.8988 39.8026C66.0806 39.9474 66.3647 40.0682 66.7511 40.1648L67.7227 40.4034C68.3079 40.5455 68.744 40.7628 69.0309 41.0554C69.3178 41.3452 69.4613 41.7187 69.4613 42.1761C69.4613 42.5511 69.3533 42.8864 69.1374 43.1818C68.9244 43.4773 68.6261 43.7102 68.2425 43.8807C67.859 44.0511 67.413 44.1364 66.9045 44.1364C66.2369 44.1364 65.6843 43.9915 65.2468 43.7017C64.8093 43.4119 64.5323 42.9886 64.4158 42.4318L65.3704 42.1932C65.4613 42.5455 65.6332 42.8097 65.886 42.9858C66.1417 43.1619 66.4755 43.25 66.8874 43.25C67.3562 43.25 67.7283 43.1506 68.0039 42.9517C68.2823 42.75 68.4215 42.5085 68.4215 42.2273C68.4215 42 68.342 41.8097 68.1829 41.6562C68.0238 41.5 67.7795 41.3835 67.4499 41.3068L66.359 41.0511C65.7596 40.9091 65.3192 40.6889 65.038 40.3906C64.7596 40.0895 64.6204 39.7131 64.6204 39.2614C64.6204 38.892 64.7241 38.5653 64.9315 38.2812C65.1417 37.9972 65.4272 37.7741 65.788 37.6122C66.1516 37.4503 66.5636 37.3693 67.0238 37.3693C67.6715 37.3693 68.18 37.5114 68.5494 37.7955C68.9215 38.0795 69.1857 38.4545 69.342 38.9205ZM75.6115 38.9205L74.7081 39.1761C74.6513 39.0256 74.5675 38.8793 74.4567 38.7372C74.3487 38.5923 74.201 38.473 74.0135 38.3793C73.826 38.2855 73.5859 38.2386 73.2933 38.2386C72.8928 38.2386 72.5589 38.331 72.2919 38.5156C72.0277 38.6974 71.8956 38.929 71.8956 39.2102C71.8956 39.4602 71.9865 39.6577 72.1683 39.8026C72.3501 39.9474 72.6342 40.0682 73.0206 40.1648L73.9922 40.4034C74.5774 40.5455 75.0135 40.7628 75.3004 41.0554C75.5874 41.3452 75.7308 41.7187 75.7308 42.1761C75.7308 42.5511 75.6229 42.8864 75.407 43.1818C75.1939 43.4773 74.8956 43.7102 74.5121 43.8807C74.1286 44.0511 73.6825 44.1364 73.174 44.1364C72.5064 44.1364 71.9538 43.9915 71.5163 43.7017C71.0788 43.4119 70.8018 42.9886 70.6854 42.4318L71.6399 42.1932C71.7308 42.5455 71.9027 42.8097 72.1555 42.9858C72.4112 43.1619 72.745 43.25 73.157 43.25C73.6257 43.25 73.9979 43.1506 74.2734 42.9517C74.5518 42.75 74.6911 42.5085 74.6911 42.2273C74.6911 42 74.6115 41.8097 74.4524 41.6562C74.2933 41.5 74.049 41.3835 73.7195 41.3068L72.6286 41.0511C72.0291 40.9091 71.5888 40.6889 71.3075 40.3906C71.0291 40.0895 70.8899 39.7131 70.8899 39.2614C70.8899 38.892 70.9936 38.5653 71.201 38.2812C71.4112 37.9972 71.6967 37.7741 72.0575 37.6122C72.4212 37.4503 72.8331 37.3693 73.2933 37.3693C73.9411 37.3693 74.4496 37.5114 74.8189 37.7955C75.1911 38.0795 75.4553 38.4545 75.6115 38.9205ZM79.989 44.1364C79.3583 44.1364 78.8143 43.9972 78.3569 43.7188C77.9023 43.4375 77.5515 43.0455 77.3043 42.5426C77.06 42.0369 76.9379 41.4489 76.9379 40.7784C76.9379 40.108 77.06 39.517 77.3043 39.0057C77.5515 38.4915 77.8952 38.0909 78.3356 37.804C78.7788 37.5142 79.2958 37.3693 79.8867 37.3693C80.2276 37.3693 80.5643 37.4261 80.8967 37.5398C81.229 37.6534 81.5316 37.8381 81.8043 38.0938C82.0771 38.3466 82.2944 38.6818 82.4563 39.0994C82.6183 39.517 82.6992 40.0312 82.6992 40.642V41.0682H77.6538V40.1989H81.6765C81.6765 39.8295 81.6026 39.5 81.4549 39.2102C81.31 38.9205 81.1026 38.6918 80.8327 38.5241C80.5657 38.3565 80.2504 38.2727 79.8867 38.2727C79.4862 38.2727 79.1396 38.3722 78.8469 38.571C78.5572 38.767 78.3342 39.0227 78.1779 39.3381C78.0217 39.6534 77.9435 39.9915 77.9435 40.3523V40.9318C77.9435 41.4261 78.0288 41.8452 78.1992 42.1889C78.3725 42.5298 78.6126 42.7898 78.9194 42.9688C79.2262 43.1449 79.5827 43.233 79.989 43.233C80.2532 43.233 80.4918 43.196 80.7049 43.1222C80.9208 43.0455 81.1069 42.9318 81.2631 42.7812C81.4194 42.6278 81.5401 42.4375 81.6254 42.2102L82.5969 42.483C82.4947 42.8125 82.3228 43.1023 82.0813 43.3523C81.8398 43.5994 81.5415 43.7926 81.1864 43.9318C80.8313 44.0682 80.4322 44.1364 79.989 44.1364ZM90.2631 44.1364C89.6495 44.1364 89.1211 43.9915 88.6779 43.7017C88.2347 43.4119 87.8938 43.0128 87.6552 42.5043C87.4165 41.9957 87.2972 41.4148 87.2972 40.7614C87.2972 40.0966 87.4194 39.5099 87.6637 39.0014C87.9109 38.4901 88.2546 38.0909 88.695 37.804C89.1381 37.5142 89.6552 37.3693 90.2461 37.3693C90.7063 37.3693 91.1211 37.4545 91.4904 37.625C91.8597 37.7955 92.1623 38.0341 92.3981 38.3409C92.6339 38.6477 92.7802 39.0057 92.837 39.4148H91.8313C91.7546 39.1165 91.5842 38.8523 91.32 38.6222C91.0586 38.3892 90.7063 38.2727 90.2631 38.2727C89.8711 38.2727 89.5273 38.375 89.2319 38.5795C88.9393 38.7812 88.7106 39.0668 88.5458 39.4361C88.3839 39.8026 88.3029 40.233 88.3029 40.7273C88.3029 41.233 88.3825 41.6733 88.5415 42.0483C88.7035 42.4233 88.9308 42.7145 89.2234 42.9219C89.5188 43.1293 89.8654 43.233 90.2631 43.233C90.5245 43.233 90.7617 43.1875 90.9748 43.0966C91.1879 43.0057 91.3683 42.875 91.516 42.7045C91.6637 42.5341 91.7688 42.3295 91.8313 42.0909H92.837C92.7802 42.4773 92.6396 42.8253 92.4151 43.1349C92.1935 43.4418 91.8995 43.6861 91.533 43.8679C91.1694 44.0469 90.7461 44.1364 90.2631 44.1364ZM96.2333 44.1534C95.8185 44.1534 95.4421 44.0753 95.104 43.919C94.766 43.7599 94.4975 43.5312 94.2987 43.233C94.0998 42.9318 94.0004 42.5682 94.0004 42.142C94.0004 41.767 94.0742 41.4631 94.2219 41.2301C94.3697 40.9943 94.5671 40.8097 94.8143 40.6761C95.0614 40.5426 95.3342 40.4432 95.6325 40.3778C95.9336 40.3097 96.2362 40.2557 96.5401 40.2159C96.9379 40.1648 97.2603 40.1264 97.5075 40.1009C97.7575 40.0724 97.9393 40.0256 98.0529 39.9602C98.1694 39.8949 98.2276 39.7812 98.2276 39.6193V39.5852C98.2276 39.1648 98.1126 38.8381 97.8825 38.6051C97.6552 38.3722 97.31 38.2557 96.8469 38.2557C96.3668 38.2557 95.9904 38.3608 95.7177 38.571C95.445 38.7812 95.2532 39.0057 95.1424 39.2443L94.1879 38.9034C94.3583 38.5057 94.5856 38.196 94.8697 37.9744C95.1566 37.75 95.4691 37.5937 95.8072 37.5057C96.1481 37.4148 96.4833 37.3693 96.8129 37.3693C97.0231 37.3693 97.2646 37.3949 97.5373 37.446C97.8129 37.4943 98.0785 37.5952 98.3342 37.7486C98.5927 37.902 98.8072 38.1335 98.9776 38.4432C99.1481 38.7528 99.2333 39.1676 99.2333 39.6875V44H98.2276V43.1136H98.1765C98.1083 43.2557 97.9947 43.4077 97.8356 43.5696C97.6765 43.7315 97.4648 43.8693 97.2006 43.983C96.9364 44.0966 96.614 44.1534 96.2333 44.1534ZM96.3867 43.25C96.7844 43.25 97.1197 43.1719 97.3924 43.0156C97.668 42.8594 97.8754 42.6577 98.0146 42.4105C98.1566 42.1634 98.2276 41.9034 98.2276 41.6307V40.7102C98.185 40.7614 98.0913 40.8082 97.9464 40.8509C97.8043 40.8906 97.6396 40.9261 97.4521 40.9574C97.2674 40.9858 97.087 41.0114 96.9109 41.0341C96.7376 41.054 96.5969 41.071 96.489 41.0852C96.2276 41.1193 95.9833 41.1747 95.756 41.2514C95.5316 41.3253 95.3498 41.4375 95.2106 41.5881C95.0742 41.7358 95.006 41.9375 95.006 42.1932C95.006 42.5426 95.1353 42.8068 95.3938 42.9858C95.6552 43.1619 95.9862 43.25 96.3867 43.25ZM101.069 44V37.4545H102.04V38.4773H102.126C102.262 38.1278 102.482 37.8565 102.786 37.6634C103.09 37.4673 103.455 37.3693 103.881 37.3693C104.313 37.3693 104.673 37.4673 104.96 37.6634C105.249 37.8565 105.475 38.1278 105.637 38.4773H105.705C105.873 38.1392 106.124 37.8707 106.46 37.6719C106.795 37.4702 107.197 37.3693 107.665 37.3693C108.251 37.3693 108.729 37.5526 109.102 37.919C109.474 38.2827 109.66 38.8494 109.66 39.6193V44H108.654V39.6193C108.654 39.1364 108.522 38.7912 108.258 38.5838C107.994 38.3764 107.683 38.2727 107.325 38.2727C106.864 38.2727 106.508 38.4119 106.255 38.6903C106.002 38.9659 105.876 39.3153 105.876 39.7386V44H104.853V39.517C104.853 39.1449 104.732 38.8452 104.491 38.6179C104.249 38.3878 103.938 38.2727 103.558 38.2727C103.296 38.2727 103.052 38.3423 102.825 38.4815C102.6 38.6207 102.418 38.8139 102.279 39.0611C102.143 39.3054 102.075 39.5881 102.075 39.9091V44H101.069ZM111.499 46.4545V37.4545H112.47V38.4943H112.589C112.663 38.3807 112.766 38.2358 112.896 38.0597C113.03 37.8807 113.22 37.7216 113.467 37.5824C113.717 37.4403 114.055 37.3693 114.482 37.3693C115.033 37.3693 115.518 37.5071 115.939 37.7827C116.359 38.0582 116.688 38.4489 116.923 38.9545C117.159 39.4602 117.277 40.0568 117.277 40.7443C117.277 41.4375 117.159 42.0384 116.923 42.5469C116.688 43.0526 116.361 43.4446 115.943 43.723C115.526 43.9986 115.044 44.1364 114.499 44.1364C114.078 44.1364 113.741 44.0668 113.489 43.9276C113.236 43.7855 113.041 43.625 112.905 43.446C112.768 43.2642 112.663 43.1136 112.589 42.9943H112.504V46.4545H111.499ZM112.487 40.7273C112.487 41.2216 112.56 41.6577 112.705 42.0355C112.849 42.4105 113.061 42.7045 113.339 42.9176C113.618 43.1278 113.959 43.233 114.362 43.233C114.783 43.233 115.134 43.1222 115.415 42.9006C115.699 42.6761 115.912 42.375 116.054 41.9972C116.199 41.6165 116.271 41.1932 116.271 40.7273C116.271 40.267 116.2 39.8523 116.058 39.483C115.919 39.1108 115.707 38.8168 115.423 38.6009C115.142 38.3821 114.788 38.2727 114.362 38.2727C113.953 38.2727 113.609 38.3764 113.331 38.5838C113.053 38.7884 112.842 39.0753 112.7 39.4446C112.558 39.8111 112.487 40.2386 112.487 40.7273ZM121.47 44.1364C120.879 44.1364 120.361 43.9957 119.915 43.7145C119.472 43.4332 119.125 43.0398 118.875 42.5341C118.628 42.0284 118.504 41.4375 118.504 40.7614C118.504 40.0795 118.628 39.4844 118.875 38.9759C119.125 38.4673 119.472 38.0724 119.915 37.7912C120.361 37.5099 120.879 37.3693 121.47 37.3693C122.061 37.3693 122.578 37.5099 123.021 37.7912C123.467 38.0724 123.814 38.4673 124.061 38.9759C124.311 39.4844 124.436 40.0795 124.436 40.7614C124.436 41.4375 124.311 42.0284 124.061 42.5341C123.814 43.0398 123.467 43.4332 123.021 43.7145C122.578 43.9957 122.061 44.1364 121.47 44.1364ZM121.47 43.233C121.919 43.233 122.288 43.1179 122.578 42.8878C122.868 42.6577 123.082 42.3551 123.222 41.9801C123.361 41.6051 123.43 41.1989 123.43 40.7614C123.43 40.3239 123.361 39.9162 123.222 39.5384C123.082 39.1605 122.868 38.8551 122.578 38.6222C122.288 38.3892 121.919 38.2727 121.47 38.2727C121.021 38.2727 120.652 38.3892 120.362 38.6222C120.072 38.8551 119.858 39.1605 119.719 39.5384C119.58 39.9162 119.51 40.3239 119.51 40.7614C119.51 41.1989 119.58 41.6051 119.719 41.9801C119.858 42.3551 120.072 42.6577 120.362 42.8878C120.652 43.1179 121.021 43.233 121.47 43.233ZM126.704 44.0682C126.494 44.0682 126.314 43.9929 126.163 43.8423C126.012 43.6918 125.937 43.5114 125.937 43.3011C125.937 43.0909 126.012 42.9105 126.163 42.7599C126.314 42.6094 126.494 42.5341 126.704 42.5341C126.914 42.5341 127.095 42.6094 127.245 42.7599C127.396 42.9105 127.471 43.0909 127.471 43.3011C127.471 43.4403 127.436 43.5682 127.365 43.6847C127.297 43.8011 127.204 43.8949 127.088 43.9659C126.974 44.0341 126.846 44.0682 126.704 44.0682Z" fill="#FF0000"/>
<path d="M0.676136 4.91193V3.81818H8.3125V4.91193H5.1108V14H3.87784V4.91193H0.676136ZM10.0563 14V6.36364H11.2296V14H10.0563ZM10.1159 5.32955L11.329 3.02273H12.7012L11.15 5.32955H10.1159ZM16.6996 6.36364V7.35795H12.7422V6.36364H16.6996ZM13.8956 4.53409H15.0689V11.8125C15.0689 12.1439 15.117 12.3925 15.2131 12.5582C15.3125 12.7206 15.4384 12.83 15.5909 12.8864C15.7467 12.9394 15.9107 12.9659 16.0831 12.9659C16.2124 12.9659 16.3184 12.9593 16.4013 12.946C16.4841 12.9295 16.5504 12.9162 16.6001 12.9062L16.8388 13.9602C16.7592 13.9901 16.6482 14.0199 16.5057 14.0497C16.3632 14.0829 16.1825 14.0994 15.9638 14.0994C15.6323 14.0994 15.3075 14.0282 14.9893 13.8857C14.6745 13.7431 14.4126 13.526 14.2038 13.2344C13.9983 12.9427 13.8956 12.5748 13.8956 12.1307V4.53409ZM23.277 10.8778V6.36364H24.4503V14H23.277V12.7074H23.1974C23.0185 13.0952 22.7401 13.425 22.3622 13.6967C21.9844 13.9652 21.5071 14.0994 20.9304 14.0994C20.4531 14.0994 20.0289 13.995 19.6577 13.7862C19.2865 13.5741 18.9948 13.2559 18.7827 12.8317C18.5705 12.4041 18.4645 11.8655 18.4645 11.2159V6.36364H19.6378V11.1364C19.6378 11.6932 19.7936 12.1373 20.1051 12.4688C20.42 12.8002 20.821 12.9659 21.3082 12.9659C21.5999 12.9659 21.8965 12.8913 22.1982 12.7422C22.5031 12.593 22.7583 12.3643 22.9638 12.0561C23.1726 11.7479 23.277 11.3551 23.277 10.8778ZM27.7725 3.81818V14H26.5993V3.81818H27.7725ZM33.0238 14.1591C32.3344 14.1591 31.7295 13.995 31.2092 13.6669C30.6921 13.3388 30.2878 12.8797 29.9961 12.2898C29.7077 11.6998 29.5636 11.0104 29.5636 10.2216C29.5636 9.42614 29.7077 8.73177 29.9961 8.13849C30.2878 7.54522 30.6921 7.08452 31.2092 6.75639C31.7295 6.42827 32.3344 6.2642 33.0238 6.2642C33.7132 6.2642 34.3164 6.42827 34.8335 6.75639C35.3538 7.08452 35.7582 7.54522 36.0465 8.13849C36.3382 8.73177 36.484 9.42614 36.484 10.2216C36.484 11.0104 36.3382 11.6998 36.0465 12.2898C35.7582 12.8797 35.3538 13.3388 34.8335 13.6669C34.3164 13.995 33.7132 14.1591 33.0238 14.1591ZM33.0238 13.1051C33.5475 13.1051 33.9783 12.9709 34.3164 12.7024C34.6545 12.4339 34.9047 12.081 35.0671 11.6435C35.2295 11.206 35.3107 10.732 35.3107 10.2216C35.3107 9.71117 35.2295 9.23556 35.0671 8.79474C34.9047 8.35393 34.6545 7.99763 34.3164 7.72585C33.9783 7.45407 33.5475 7.31818 33.0238 7.31818C32.5001 7.31818 32.0692 7.45407 31.7312 7.72585C31.3931 7.99763 31.1429 8.35393 30.9805 8.79474C30.8181 9.23556 30.7369 9.71117 30.7369 10.2216C30.7369 10.732 30.8181 11.206 30.9805 11.6435C31.1429 12.081 31.3931 12.4339 31.7312 12.7024C32.0692 12.9709 32.5001 13.1051 33.0238 13.1051Z" fill="#C4C4C4"/>
</svg>
