<svg width="358" height="50" viewBox="0 0 358 50" fill="none" xmlns="http://www.w3.org/2000/svg">
<rect width="358" height="50" rx="2" fill="black"/>
<path d="M172.047 22.1818C171.97 21.5341 171.659 21.0312 171.114 20.6733C170.568 20.3153 169.899 20.1364 169.107 20.1364C168.527 20.1364 168.02 20.2301 167.585 20.4176C167.155 20.6051 166.818 20.8629 166.575 21.1911C166.337 21.5192 166.218 21.892 166.218 22.3097C166.218 22.6591 166.301 22.9595 166.467 23.2109C166.637 23.4581 166.855 23.6648 167.119 23.831C167.383 23.9929 167.66 24.1271 167.95 24.2337C168.24 24.3359 168.506 24.419 168.749 24.483L170.078 24.8409C170.419 24.9304 170.798 25.054 171.216 25.2116C171.638 25.3693 172.041 25.5845 172.424 25.8572C172.812 26.1257 173.132 26.4709 173.383 26.8928C173.634 27.3146 173.76 27.8324 173.76 28.446C173.76 29.1534 173.575 29.7926 173.204 30.3636C172.838 30.9347 172.301 31.3885 171.593 31.7251C170.89 32.0618 170.036 32.2301 169.03 32.2301C168.093 32.2301 167.281 32.0788 166.595 31.7763C165.913 31.4737 165.376 31.0518 164.984 30.5107C164.596 29.9695 164.377 29.3409 164.325 28.625H165.962C166.004 29.1193 166.171 29.5284 166.46 29.8523C166.754 30.1719 167.125 30.4105 167.573 30.5682C168.024 30.7216 168.51 30.7983 169.03 30.7983C169.635 30.7983 170.178 30.7003 170.66 30.5043C171.142 30.304 171.523 30.027 171.804 29.6733C172.085 29.3153 172.226 28.8977 172.226 28.4205C172.226 27.9858 172.105 27.6321 171.862 27.3594C171.619 27.0866 171.299 26.8651 170.903 26.6946C170.507 26.5241 170.078 26.375 169.618 26.2472L168.007 25.7869C166.985 25.4929 166.175 25.0732 165.578 24.5277C164.982 23.9822 164.683 23.2685 164.683 22.3864C164.683 21.6534 164.882 21.0142 165.278 20.4688C165.678 19.919 166.215 19.4929 166.889 19.1903C167.566 18.8835 168.323 18.7301 169.158 18.7301C170.002 18.7301 170.752 18.8814 171.408 19.1839C172.064 19.4822 172.584 19.8913 172.968 20.4112C173.355 20.9311 173.56 21.5213 173.581 22.1818H172.047ZM176.162 32V22.1818H177.67V32H176.162ZM176.929 20.5455C176.635 20.5455 176.381 20.4453 176.168 20.245C175.96 20.0447 175.855 19.804 175.855 19.5227C175.855 19.2415 175.96 19.0007 176.168 18.8004C176.381 18.6001 176.635 18.5 176.929 18.5C177.223 18.5 177.474 18.6001 177.683 18.8004C177.896 19.0007 178.003 19.2415 178.003 19.5227C178.003 19.804 177.896 20.0447 177.683 20.245C177.474 20.4453 177.223 20.5455 176.929 20.5455ZM180.433 32V22.1818H181.891V23.7159H182.019C182.223 23.1918 182.553 22.7848 183.009 22.495C183.465 22.201 184.013 22.054 184.652 22.054C185.3 22.054 185.839 22.201 186.269 22.495C186.704 22.7848 187.043 23.1918 187.286 23.7159H187.388C187.639 23.2088 188.017 22.8061 188.519 22.5078C189.022 22.2053 189.625 22.054 190.328 22.054C191.206 22.054 191.924 22.3288 192.482 22.8786C193.041 23.424 193.32 24.2741 193.32 25.429V32H191.811V25.429C191.811 24.7045 191.613 24.1868 191.217 23.8757C190.82 23.5646 190.354 23.4091 189.817 23.4091C189.127 23.4091 188.592 23.6179 188.213 24.0355C187.833 24.4489 187.644 24.973 187.644 25.608V32H186.11V25.2756C186.11 24.7173 185.928 24.2678 185.566 23.9268C185.204 23.5817 184.737 23.4091 184.166 23.4091C183.774 23.4091 183.408 23.5135 183.067 23.7223C182.73 23.9311 182.458 24.2209 182.249 24.5916C182.044 24.9581 181.942 25.3821 181.942 25.8636V32H180.433Z" fill="white"/>
</svg>
