<svg width="358" height="50" viewBox="0 0 358 50" fill="none" xmlns="http://www.w3.org/2000/svg">
<rect width="358" height="50" rx="2" fill="black"/>
<path d="M154.645 22.1818C154.568 21.5341 154.257 21.0312 153.711 20.6733C153.166 20.3153 152.497 20.1364 151.704 20.1364C151.125 20.1364 150.618 20.2301 150.183 20.4176C149.753 20.6051 149.416 20.8629 149.173 21.1911C148.934 21.5192 148.815 21.892 148.815 22.3097C148.815 22.6591 148.898 22.9595 149.064 23.2109C149.235 23.4581 149.452 23.6648 149.716 23.831C149.981 23.9929 150.258 24.1271 150.547 24.2337C150.837 24.3359 151.104 24.419 151.346 24.483L152.676 24.8409C153.017 24.9304 153.396 25.054 153.814 25.2116C154.236 25.3693 154.638 25.5845 155.022 25.8572C155.41 26.1257 155.729 26.4709 155.981 26.8928C156.232 27.3146 156.358 27.8324 156.358 28.446C156.358 29.1534 156.172 29.7926 155.802 30.3636C155.435 30.9347 154.898 31.3885 154.191 31.7251C153.488 32.0618 152.633 32.2301 151.628 32.2301C150.69 32.2301 149.878 32.0788 149.192 31.7763C148.51 31.4737 147.974 31.0518 147.581 30.5107C147.194 29.9695 146.974 29.3409 146.923 28.625H148.559C148.602 29.1193 148.768 29.5284 149.058 29.8523C149.352 30.1719 149.723 30.4105 150.17 30.5682C150.622 30.7216 151.108 30.7983 151.628 30.7983C152.233 30.7983 152.776 30.7003 153.258 30.5043C153.739 30.304 154.121 30.027 154.402 29.6733C154.683 29.3153 154.824 28.8977 154.824 28.4205C154.824 27.9858 154.702 27.6321 154.459 27.3594C154.216 27.0866 153.897 26.8651 153.501 26.6946C153.104 26.5241 152.676 26.375 152.216 26.2472L150.605 25.7869C149.582 25.4929 148.773 25.0732 148.176 24.5277C147.579 23.9822 147.281 23.2685 147.281 22.3864C147.281 21.6534 147.479 21.0142 147.876 20.4688C148.276 19.919 148.813 19.4929 149.486 19.1903C150.164 18.8835 150.92 18.7301 151.756 18.7301C152.599 18.7301 153.349 18.8814 154.006 19.1839C154.662 19.4822 155.182 19.8913 155.565 20.4112C155.953 20.9311 156.157 21.5213 156.179 22.1818H154.645ZM161.649 32.2301C161.027 32.2301 160.462 32.1129 159.955 31.8786C159.448 31.6399 159.045 31.2969 158.747 30.8494C158.449 30.3977 158.299 29.8523 158.299 29.2131C158.299 28.6506 158.41 28.1946 158.632 27.8452C158.853 27.4915 159.15 27.2145 159.52 27.0142C159.891 26.8139 160.3 26.6648 160.748 26.5668C161.199 26.4645 161.653 26.3835 162.109 26.3239C162.706 26.2472 163.189 26.1896 163.56 26.1513C163.935 26.1087 164.208 26.0384 164.378 25.9403C164.553 25.8423 164.64 25.6719 164.64 25.429V25.3778C164.64 24.7472 164.468 24.2571 164.123 23.9077C163.782 23.5582 163.264 23.3835 162.569 23.3835C161.849 23.3835 161.284 23.5412 160.875 23.8565C160.466 24.1719 160.179 24.5085 160.012 24.8665L158.581 24.3551C158.836 23.7585 159.177 23.294 159.603 22.9616C160.034 22.625 160.502 22.3906 161.01 22.2585C161.521 22.1222 162.024 22.054 162.518 22.054C162.833 22.054 163.196 22.0923 163.605 22.169C164.018 22.2415 164.417 22.3928 164.8 22.6229C165.188 22.853 165.51 23.2003 165.765 23.6648C166.021 24.1293 166.149 24.7514 166.149 25.5312V32H164.64V30.6705H164.564C164.461 30.8835 164.291 31.1115 164.052 31.3544C163.814 31.5973 163.496 31.804 163.1 31.9744C162.703 32.1449 162.22 32.2301 161.649 32.2301ZM161.879 30.875C162.475 30.875 162.978 30.7578 163.387 30.5234C163.801 30.2891 164.112 29.9865 164.321 29.6158C164.534 29.245 164.64 28.8551 164.64 28.446V27.0653C164.576 27.142 164.436 27.2124 164.218 27.2763C164.005 27.3359 163.758 27.3892 163.477 27.4361C163.2 27.4787 162.929 27.517 162.665 27.5511C162.405 27.581 162.194 27.6065 162.032 27.6278C161.64 27.679 161.274 27.7621 160.933 27.8771C160.596 27.9879 160.324 28.1562 160.115 28.3821C159.91 28.6037 159.808 28.9062 159.808 29.2898C159.808 29.8139 160.002 30.2102 160.39 30.4787C160.782 30.7429 161.278 30.875 161.879 30.875ZM170.411 18.9091V32H168.902V18.9091H170.411ZM181.202 22.1818L177.571 32H176.037L172.407 22.1818H174.043L176.753 30.0057H176.855L179.566 22.1818H181.202ZM185.784 32.2301C185.161 32.2301 184.597 32.1129 184.09 31.8786C183.583 31.6399 183.18 31.2969 182.882 30.8494C182.583 30.3977 182.434 29.8523 182.434 29.2131C182.434 28.6506 182.545 28.1946 182.767 27.8452C182.988 27.4915 183.284 27.2145 183.655 27.0142C184.026 26.8139 184.435 26.6648 184.882 26.5668C185.334 26.4645 185.788 26.3835 186.244 26.3239C186.84 26.2472 187.324 26.1896 187.695 26.1513C188.07 26.1087 188.343 26.0384 188.513 25.9403C188.688 25.8423 188.775 25.6719 188.775 25.429V25.3778C188.775 24.7472 188.602 24.2571 188.257 23.9077C187.916 23.5582 187.399 23.3835 186.704 23.3835C185.984 23.3835 185.419 23.5412 185.01 23.8565C184.601 24.1719 184.313 24.5085 184.147 24.8665L182.715 24.3551C182.971 23.7585 183.312 23.294 183.738 22.9616C184.169 22.625 184.637 22.3906 185.144 22.2585C185.656 22.1222 186.159 22.054 186.653 22.054C186.968 22.054 187.33 22.0923 187.74 22.169C188.153 22.2415 188.551 22.3928 188.935 22.6229C189.323 22.853 189.644 23.2003 189.9 23.6648C190.156 24.1293 190.284 24.7514 190.284 25.5312V32H188.775V30.6705H188.698C188.596 30.8835 188.426 31.1115 188.187 31.3544C187.948 31.5973 187.631 31.804 187.235 31.9744C186.838 32.1449 186.355 32.2301 185.784 32.2301ZM186.014 30.875C186.61 30.875 187.113 30.7578 187.522 30.5234C187.936 30.2891 188.247 29.9865 188.455 29.6158C188.669 29.245 188.775 28.8551 188.775 28.446V27.0653C188.711 27.142 188.57 27.2124 188.353 27.2763C188.14 27.3359 187.893 27.3892 187.612 27.4361C187.335 27.4787 187.064 27.517 186.8 27.5511C186.54 27.581 186.329 27.6065 186.167 27.6278C185.775 27.679 185.409 27.7621 185.068 27.8771C184.731 27.9879 184.458 28.1562 184.249 28.3821C184.045 28.6037 183.943 28.9062 183.943 29.2898C183.943 29.8139 184.137 30.2102 184.524 30.4787C184.916 30.7429 185.413 30.875 186.014 30.875ZM193.037 32V22.1818H194.494V23.6648H194.597C194.776 23.179 195.099 22.7848 195.568 22.4822C196.037 22.1797 196.565 22.0284 197.153 22.0284C197.264 22.0284 197.403 22.0305 197.569 22.0348C197.735 22.0391 197.861 22.0455 197.946 22.054V23.5881C197.895 23.5753 197.778 23.5561 197.594 23.5305C197.415 23.5007 197.226 23.4858 197.026 23.4858C196.548 23.4858 196.122 23.5859 195.747 23.7862C195.376 23.9822 195.082 24.255 194.865 24.6044C194.652 24.9496 194.545 25.3437 194.545 25.7869V32H193.037ZM199.709 32.1023C199.393 32.1023 199.123 31.9893 198.897 31.7635C198.671 31.5376 198.558 31.267 198.558 30.9517C198.558 30.6364 198.671 30.3658 198.897 30.1399C199.123 29.9141 199.393 29.8011 199.709 29.8011C200.024 29.8011 200.295 29.9141 200.52 30.1399C200.746 30.3658 200.859 30.6364 200.859 30.9517C200.859 31.1605 200.806 31.3523 200.699 31.527C200.597 31.7017 200.459 31.8423 200.284 31.9489C200.113 32.0511 199.922 32.1023 199.709 32.1023ZM204.666 32.1023C204.35 32.1023 204.08 31.9893 203.854 31.7635C203.628 31.5376 203.515 31.267 203.515 30.9517C203.515 30.6364 203.628 30.3658 203.854 30.1399C204.08 29.9141 204.35 29.8011 204.666 29.8011C204.981 29.8011 205.252 29.9141 205.477 30.1399C205.703 30.3658 205.816 30.6364 205.816 30.9517C205.816 31.1605 205.763 31.3523 205.656 31.527C205.554 31.7017 205.416 31.8423 205.241 31.9489C205.07 32.0511 204.879 32.1023 204.666 32.1023ZM209.623 32.1023C209.307 32.1023 209.037 31.9893 208.811 31.7635C208.585 31.5376 208.472 31.267 208.472 30.9517C208.472 30.6364 208.585 30.3658 208.811 30.1399C209.037 29.9141 209.307 29.8011 209.623 29.8011C209.938 29.8011 210.209 29.9141 210.434 30.1399C210.66 30.3658 210.773 30.6364 210.773 30.9517C210.773 31.1605 210.72 31.3523 210.613 31.527C210.511 31.7017 210.373 31.8423 210.198 31.9489C210.028 32.0511 209.836 32.1023 209.623 32.1023Z" fill="white"/>
</svg>
