<svg width="238" height="46" viewBox="0 0 238 46" fill="none" xmlns="http://www.w3.org/2000/svg">
<rect width="238" height="46" rx="2" fill="black"/>
<path d="M105.403 20.3636C105.343 19.8598 105.101 19.4688 104.677 19.1903C104.253 18.9119 103.732 18.7727 103.116 18.7727C102.665 18.7727 102.271 18.8456 101.933 18.9915C101.598 19.1373 101.336 19.3378 101.147 19.593C100.961 19.8482 100.869 20.1383 100.869 20.4631C100.869 20.7348 100.933 20.9685 101.062 21.1641C101.195 21.3563 101.364 21.517 101.57 21.6463C101.775 21.7723 101.991 21.8767 102.216 21.9595C102.441 22.0391 102.648 22.1037 102.837 22.1534L103.871 22.4318C104.137 22.5014 104.432 22.5975 104.756 22.7202C105.085 22.8428 105.398 23.0102 105.696 23.2223C105.998 23.4311 106.246 23.6996 106.442 24.0277C106.637 24.3558 106.735 24.7585 106.735 25.2358C106.735 25.786 106.591 26.2831 106.303 26.7273C106.018 27.1714 105.6 27.5244 105.05 27.7862C104.503 28.0481 103.838 28.179 103.056 28.179C102.327 28.179 101.696 28.0613 101.162 27.826C100.632 27.5907 100.214 27.2625 99.9091 26.8416C99.6075 26.4207 99.4368 25.9318 99.397 25.375H100.67C100.703 25.7595 100.832 26.0777 101.058 26.3295C101.286 26.5781 101.575 26.7637 101.923 26.8864C102.274 27.0057 102.652 27.0653 103.056 27.0653C103.527 27.0653 103.949 26.9891 104.324 26.8366C104.698 26.6809 104.995 26.4654 105.214 26.1903C105.433 25.9119 105.542 25.5871 105.542 25.2159C105.542 24.8778 105.447 24.6027 105.259 24.3906C105.07 24.1785 104.821 24.0062 104.513 23.8736C104.205 23.741 103.871 23.625 103.513 23.5256L102.261 23.1676C101.465 22.9389 100.835 22.6125 100.371 22.1882C99.9074 21.764 99.6754 21.2088 99.6754 20.5227C99.6754 19.9527 99.8295 19.4555 100.138 19.0312C100.449 18.6037 100.867 18.2723 101.391 18.0369C101.918 17.7983 102.506 17.679 103.156 17.679C103.812 17.679 104.395 17.7966 104.906 18.032C105.416 18.264 105.82 18.5821 106.119 18.9865C106.42 19.3909 106.579 19.8499 106.596 20.3636H105.403ZM110.85 28.179C110.366 28.179 109.927 28.0878 109.533 27.9055C109.138 27.7199 108.825 27.4531 108.593 27.1051C108.361 26.7538 108.245 26.3295 108.245 25.8324C108.245 25.3949 108.331 25.0402 108.504 24.7685C108.676 24.4934 108.906 24.2779 109.195 24.1222C109.483 23.9664 109.801 23.8504 110.149 23.7741C110.501 23.6946 110.854 23.6316 111.208 23.5852C111.672 23.5256 112.048 23.4808 112.337 23.451C112.628 23.4179 112.841 23.3632 112.973 23.2869C113.109 23.2107 113.177 23.0781 113.177 22.8892V22.8494C113.177 22.3589 113.043 21.9777 112.774 21.706C112.509 21.4342 112.106 21.2983 111.566 21.2983C111.006 21.2983 110.567 21.4209 110.249 21.6662C109.931 21.9115 109.707 22.1733 109.578 22.4517L108.464 22.054C108.663 21.59 108.928 21.2287 109.259 20.9702C109.594 20.7083 109.959 20.526 110.353 20.4233C110.751 20.3172 111.142 20.2642 111.526 20.2642C111.772 20.2642 112.053 20.294 112.372 20.3537C112.693 20.41 113.003 20.5277 113.301 20.7067C113.603 20.8857 113.853 21.1558 114.052 21.517C114.251 21.8783 114.35 22.3622 114.35 22.9688V28H113.177V26.9659H113.117C113.038 27.1316 112.905 27.3089 112.72 27.4979C112.534 27.6868 112.287 27.8475 111.979 27.9801C111.671 28.1127 111.294 28.179 110.85 28.179ZM111.029 27.125C111.493 27.125 111.884 27.0339 112.203 26.8516C112.524 26.6693 112.766 26.4339 112.928 26.1456C113.094 25.8572 113.177 25.554 113.177 25.2358V24.1619C113.127 24.2216 113.018 24.2763 112.849 24.326C112.683 24.3724 112.491 24.4138 112.272 24.4503C112.057 24.4834 111.846 24.5133 111.641 24.5398C111.439 24.563 111.275 24.5829 111.149 24.5994C110.844 24.6392 110.559 24.7038 110.294 24.7933C110.032 24.8795 109.82 25.0104 109.657 25.1861C109.498 25.3584 109.419 25.5937 109.419 25.892C109.419 26.2997 109.569 26.608 109.871 26.8168C110.176 27.0223 110.562 27.125 111.029 27.125ZM117.665 17.8182V28H116.492V17.8182H117.665ZM126.058 20.3636L123.235 28H122.041L119.218 20.3636H120.49L122.598 26.4489H122.678L124.786 20.3636H126.058ZM129.622 28.179C129.138 28.179 128.699 28.0878 128.304 27.9055C127.91 27.7199 127.597 27.4531 127.365 27.1051C127.133 26.7538 127.017 26.3295 127.017 25.8324C127.017 25.3949 127.103 25.0402 127.275 24.7685C127.448 24.4934 127.678 24.2779 127.966 24.1222C128.255 23.9664 128.573 23.8504 128.921 23.7741C129.272 23.6946 129.625 23.6316 129.98 23.5852C130.444 23.5256 130.82 23.4808 131.108 23.451C131.4 23.4179 131.612 23.3632 131.745 23.2869C131.881 23.2107 131.949 23.0781 131.949 22.8892V22.8494C131.949 22.3589 131.814 21.9777 131.546 21.706C131.281 21.4342 130.878 21.2983 130.338 21.2983C129.778 21.2983 129.338 21.4209 129.02 21.6662C128.702 21.9115 128.478 22.1733 128.349 22.4517L127.235 22.054C127.434 21.59 127.699 21.2287 128.031 20.9702C128.366 20.7083 128.73 20.526 129.125 20.4233C129.522 20.3172 129.913 20.2642 130.298 20.2642C130.543 20.2642 130.825 20.294 131.143 20.3537C131.465 20.41 131.775 20.5277 132.073 20.7067C132.374 20.8857 132.625 21.1558 132.824 21.517C133.022 21.8783 133.122 22.3622 133.122 22.9688V28H131.949V26.9659H131.889C131.809 27.1316 131.677 27.3089 131.491 27.4979C131.306 27.6868 131.059 27.8475 130.75 27.9801C130.442 28.1127 130.066 28.179 129.622 28.179ZM129.801 27.125C130.265 27.125 130.656 27.0339 130.974 26.8516C131.296 26.6693 131.538 26.4339 131.7 26.1456C131.866 25.8572 131.949 25.554 131.949 25.2358V24.1619C131.899 24.2216 131.789 24.2763 131.62 24.326C131.455 24.3724 131.262 24.4138 131.044 24.4503C130.828 24.4834 130.618 24.5133 130.412 24.5398C130.21 24.563 130.046 24.5829 129.92 24.5994C129.615 24.6392 129.33 24.7038 129.065 24.7933C128.803 24.8795 128.591 25.0104 128.429 25.1861C128.27 25.3584 128.19 25.5937 128.19 25.892C128.19 26.2997 128.341 26.608 128.642 26.8168C128.947 27.0223 129.333 27.125 129.801 27.125ZM135.263 28V20.3636H136.397V21.517H136.476C136.616 21.1392 136.867 20.8326 137.232 20.5973C137.597 20.362 138.008 20.2443 138.465 20.2443C138.551 20.2443 138.659 20.246 138.788 20.2493C138.917 20.2526 139.015 20.2576 139.081 20.2642V21.4574C139.042 21.4474 138.951 21.4325 138.808 21.4126C138.669 21.3894 138.521 21.3778 138.366 21.3778C137.994 21.3778 137.663 21.4557 137.371 21.6115C137.083 21.764 136.854 21.9761 136.685 22.2479C136.519 22.5163 136.437 22.8229 136.437 23.1676V28H135.263Z" fill="white"/>
</svg>
