<svg width="358" height="51" viewBox="0 0 358 51" fill="none" xmlns="http://www.w3.org/2000/svg">
<rect width="358" height="50.152" rx="2" fill="black"/>
<path d="M162.018 21.8447C161.941 21.1969 161.63 20.6941 161.085 20.3361C160.539 19.9782 159.87 19.7992 159.077 19.7992C158.498 19.7992 157.991 19.893 157.556 20.0805C157.126 20.268 156.789 20.5258 156.546 20.8539C156.308 21.182 156.188 21.5549 156.188 21.9725C156.188 22.3219 156.271 22.6224 156.438 22.8738C156.608 23.1209 156.825 23.3276 157.089 23.4938C157.354 23.6557 157.631 23.79 157.92 23.8965C158.21 23.9988 158.477 24.0819 158.719 24.1458L160.049 24.5038C160.39 24.5932 160.769 24.7168 161.187 24.8745C161.609 25.0322 162.011 25.2474 162.395 25.5201C162.783 25.7886 163.102 26.1337 163.354 26.5556C163.605 26.9775 163.731 27.4952 163.731 28.1089C163.731 28.8163 163.545 29.4555 163.175 30.0265C162.808 30.5975 162.271 31.0513 161.564 31.388C160.861 31.7246 160.006 31.893 159.001 31.893C158.063 31.893 157.251 31.7417 156.565 31.4391C155.884 31.1366 155.347 30.7147 154.955 30.1735C154.567 29.6323 154.347 29.0038 154.296 28.2878H155.933C155.975 28.7822 156.141 29.1913 156.431 29.5151C156.725 29.8347 157.096 30.0734 157.543 30.231C157.995 30.3844 158.481 30.4611 159.001 30.4611C159.606 30.4611 160.149 30.3631 160.631 30.1671C161.112 29.9668 161.494 29.6898 161.775 29.3361C162.056 28.9782 162.197 28.5606 162.197 28.0833C162.197 27.6486 162.075 27.2949 161.832 27.0222C161.589 26.7495 161.27 26.5279 160.874 26.3574C160.477 26.187 160.049 26.0378 159.589 25.91L157.978 25.4498C156.955 25.1557 156.146 24.736 155.549 24.1905C154.952 23.6451 154.654 22.9313 154.654 22.0492C154.654 21.3163 154.852 20.677 155.249 20.1316C155.649 19.5819 156.186 19.1557 156.859 18.8532C157.537 18.5464 158.293 18.393 159.129 18.393C159.972 18.393 160.722 18.5442 161.379 18.8468C162.035 19.1451 162.555 19.5542 162.938 20.0741C163.326 20.5939 163.531 21.1841 163.552 21.8447H162.018ZM169.022 31.893C168.4 31.893 167.835 31.7758 167.328 31.5414C166.821 31.3028 166.418 30.9597 166.12 30.5123C165.822 30.0606 165.672 29.5151 165.672 28.8759C165.672 28.3134 165.783 27.8574 166.005 27.508C166.226 27.1543 166.523 26.8773 166.893 26.677C167.264 26.4768 167.673 26.3276 168.121 26.2296C168.572 26.1273 169.026 26.0464 169.482 25.9867C170.079 25.91 170.562 25.8525 170.933 25.8141C171.308 25.7715 171.581 25.7012 171.751 25.6032C171.926 25.5052 172.013 25.3347 172.013 25.0918V25.0407C172.013 24.41 171.841 23.9199 171.496 23.5705C171.155 23.2211 170.637 23.0464 169.942 23.0464C169.222 23.0464 168.657 23.204 168.248 23.5194C167.839 23.8347 167.552 24.1714 167.385 24.5293L165.954 24.018C166.209 23.4214 166.55 22.9569 166.976 22.6245C167.407 22.2878 167.876 22.0535 168.383 21.9214C168.894 21.785 169.397 21.7168 169.891 21.7168C170.206 21.7168 170.569 21.7552 170.978 21.8319C171.391 21.9043 171.79 22.0556 172.173 22.2857C172.561 22.5158 172.883 22.8631 173.138 23.3276C173.394 23.7921 173.522 24.4143 173.522 25.1941V31.6628H172.013V30.3333H171.937C171.834 30.5464 171.664 30.7743 171.425 31.0172C171.187 31.2601 170.869 31.4668 170.473 31.6373C170.077 31.8077 169.593 31.893 169.022 31.893ZM169.252 30.5378C169.849 30.5378 170.351 30.4207 170.76 30.1863C171.174 29.9519 171.485 29.6493 171.694 29.2786C171.907 28.9079 172.013 28.518 172.013 28.1089V26.7282C171.949 26.8049 171.809 26.8752 171.591 26.9391C171.378 26.9988 171.131 27.052 170.85 27.0989C170.573 27.1415 170.302 27.1799 170.038 27.214C169.778 27.2438 169.567 27.2694 169.405 27.2907C169.013 27.3418 168.647 27.4249 168.306 27.54C167.969 27.6508 167.697 27.8191 167.488 28.0449C167.283 28.2665 167.181 28.5691 167.181 28.9526C167.181 29.4768 167.375 29.8731 167.763 30.1415C168.155 30.4057 168.651 30.5378 169.252 30.5378ZM177.784 18.5719V31.6628H176.275V18.5719H177.784ZM188.575 21.8447L184.944 31.6628H183.41L179.78 21.8447H181.416L184.126 29.6685H184.229L186.939 21.8447H188.575ZM193.157 31.893C192.534 31.893 191.97 31.7758 191.463 31.5414C190.956 31.3028 190.553 30.9597 190.255 30.5123C189.956 30.0606 189.807 29.5151 189.807 28.8759C189.807 28.3134 189.918 27.8574 190.14 27.508C190.361 27.1543 190.657 26.8773 191.028 26.677C191.399 26.4768 191.808 26.3276 192.255 26.2296C192.707 26.1273 193.161 26.0464 193.617 25.9867C194.213 25.91 194.697 25.8525 195.068 25.8141C195.443 25.7715 195.716 25.7012 195.886 25.6032C196.061 25.5052 196.148 25.3347 196.148 25.0918V25.0407C196.148 24.41 195.975 23.9199 195.63 23.5705C195.289 23.2211 194.772 23.0464 194.077 23.0464C193.357 23.0464 192.792 23.204 192.383 23.5194C191.974 23.8347 191.686 24.1714 191.52 24.5293L190.088 24.018C190.344 23.4214 190.685 22.9569 191.111 22.6245C191.542 22.2878 192.01 22.0535 192.517 21.9214C193.029 21.785 193.532 21.7168 194.026 21.7168C194.341 21.7168 194.703 21.7552 195.113 21.8319C195.526 21.9043 195.924 22.0556 196.308 22.2857C196.696 22.5158 197.017 22.8631 197.273 23.3276C197.529 23.7921 197.657 24.4143 197.657 25.1941V31.6628H196.148V30.3333H196.071C195.969 30.5464 195.799 30.7743 195.56 31.0172C195.321 31.2601 195.004 31.4668 194.608 31.6373C194.211 31.8077 193.728 31.893 193.157 31.893ZM193.387 30.5378C193.983 30.5378 194.486 30.4207 194.895 30.1863C195.309 29.9519 195.62 29.6493 195.828 29.2786C196.042 28.9079 196.148 28.518 196.148 28.1089V26.7282C196.084 26.8049 195.944 26.8752 195.726 26.9391C195.513 26.9988 195.266 27.052 194.985 27.0989C194.708 27.1415 194.437 27.1799 194.173 27.214C193.913 27.2438 193.702 27.2694 193.54 27.2907C193.148 27.3418 192.782 27.4249 192.441 27.54C192.104 27.6508 191.831 27.8191 191.623 28.0449C191.418 28.2665 191.316 28.5691 191.316 28.9526C191.316 29.4768 191.51 29.8731 191.897 30.1415C192.289 30.4057 192.786 30.5378 193.387 30.5378ZM200.41 31.6628V21.8447H201.867V23.3276H201.97C202.149 22.8418 202.472 22.4476 202.941 22.1451C203.41 21.8425 203.938 21.6913 204.526 21.6913C204.637 21.6913 204.776 21.6934 204.942 21.6976C205.108 21.7019 205.234 21.7083 205.319 21.7168V23.2509C205.268 23.2381 205.151 23.2189 204.968 23.1934C204.789 23.1636 204.599 23.1486 204.399 23.1486C203.921 23.1486 203.495 23.2488 203.12 23.4491C202.749 23.6451 202.455 23.9178 202.238 24.2672C202.025 24.6124 201.919 25.0066 201.919 25.4498V31.6628H200.41Z" fill="white"/>
</svg>
